<svg width="92" height="15" viewBox="0 0 92 15" fill="none" xmlns="http://www.w3.org/2000/svg">
<path d="M10.543 4.87891L14.4531 5.45312C14.7812 5.50781 15.0547 5.72656 15.1641 6.05469C15.2734 6.35547 15.1914 6.71094 14.9453 6.92969L12.1016 9.74609L12.7852 13.7383C12.8398 14.0664 12.7031 14.3945 12.4297 14.5859C12.1562 14.8047 11.8008 14.8047 11.5 14.668L8 12.7812L4.47266 14.668C4.19922 14.8047 3.81641 14.8047 3.57031 14.5859C3.29688 14.3945 3.16016 14.0664 3.21484 13.7383L3.87109 9.74609L1.02734 6.92969C0.78125 6.71094 0.699219 6.35547 0.808594 6.05469C0.917969 5.72656 1.19141 5.50781 1.51953 5.45312L5.45703 4.87891L7.20703 1.24219C7.34375 0.941406 7.64453 0.75 8 0.75C8.32812 0.75 8.62891 0.941406 8.76562 1.24219L10.543 4.87891Z" fill="#04D800"/>
<path d="M29.543 4.87891L33.4531 5.45312C33.7812 5.50781 34.0547 5.72656 34.1641 6.05469C34.2734 6.35547 34.1914 6.71094 33.9453 6.92969L31.1016 9.74609L31.7852 13.7383C31.8398 14.0664 31.7031 14.3945 31.4297 14.5859C31.1562 14.8047 30.8008 14.8047 30.5 14.668L27 12.7812L23.4727 14.668C23.1992 14.8047 22.8164 14.8047 22.5703 14.5859C22.2969 14.3945 22.1602 14.0664 22.2148 13.7383L22.8711 9.74609L20.0273 6.92969C19.7812 6.71094 19.6992 6.35547 19.8086 6.05469C19.918 5.72656 20.1914 5.50781 20.5195 5.45312L24.457 4.87891L26.207 1.24219C26.3438 0.941406 26.6445 0.75 27 0.75C27.3281 0.75 27.6289 0.941406 27.7656 1.24219L29.543 4.87891Z" fill="#04D800"/>
<path d="M48.543 4.87891L52.4531 5.45312C52.7812 5.50781 53.0547 5.72656 53.1641 6.05469C53.2734 6.35547 53.1914 6.71094 52.9453 6.92969L50.1016 9.74609L50.7852 13.7383C50.8398 14.0664 50.7031 14.3945 50.4297 14.5859C50.1562 14.8047 49.8008 14.8047 49.5 14.668L46 12.7812L42.4727 14.668C42.1992 14.8047 41.8164 14.8047 41.5703 14.5859C41.2969 14.3945 41.1602 14.0664 41.2148 13.7383L41.8711 9.74609L39.0273 6.92969C38.7812 6.71094 38.6992 6.35547 38.8086 6.05469C38.918 5.72656 39.1914 5.50781 39.5195 5.45312L43.457 4.87891L45.207 1.24219C45.3438 0.941406 45.6445 0.75 46 0.75C46.3281 0.75 46.6289 0.941406 46.7656 1.24219L48.543 4.87891Z" fill="#04D800"/>
<path d="M67.543 4.87891L71.4531 5.45312C71.7812 5.50781 72.0547 5.72656 72.1641 6.05469C72.2734 6.35547 72.1914 6.71094 71.9453 6.92969L69.1016 9.74609L69.7852 13.7383C69.8398 14.0664 69.7031 14.3945 69.4297 14.5859C69.1562 14.8047 68.8008 14.8047 68.5 14.668L65 12.7812L61.4727 14.668C61.1992 14.8047 60.8164 14.8047 60.5703 14.5859C60.2969 14.3945 60.1602 14.0664 60.2148 13.7383L60.8711 9.74609L58.0273 6.92969C57.7812 6.71094 57.6992 6.35547 57.8086 6.05469C57.918 5.72656 58.1914 5.50781 58.5195 5.45312L62.457 4.87891L64.207 1.24219C64.3438 0.941406 64.6445 0.75 65 0.75C65.3281 0.75 65.6289 0.941406 65.7656 1.24219L67.543 4.87891Z" fill="#04D800"/>
<path d="M84 12.7812L80.4727 14.668C80.1992 14.8047 79.8164 14.8047 79.5703 14.5859C79.2969 14.3945 79.1602 14.0664 79.2148 13.7383L79.8711 9.74609L77.0273 6.92969C76.7812 6.71094 76.6992 6.35547 76.8086 6.05469C76.918 5.72656 77.1914 5.50781 77.5195 5.45312L81.457 4.87891L83.207 1.24219C83.3438 0.941406 83.6445 0.777344 83.9727 0.75L84 12.7812ZM87.9648 14.75C87.9375 14.7773 87.9102 14.7773 87.8555 14.75H87.9648Z" fill="#04D800"/>
</svg>
